<?xml version="1.0" encoding="UTF-8" standalone="no"?>
<!DOCTYPE svg PUBLIC "-//W3C//DTD SVG 1.1//EN"
 "http://www.w3.org/Graphics/SVG/1.1/DTD/svg11.dtd">
<!-- Generated by graphviz version 2.38.0 (20140413.2041)
 -->
<!-- Title: %3 Pages: 1 -->
<svg width="719pt" height="260pt"
 viewBox="0.00 0.00 719.43 260.00" xmlns="http://www.w3.org/2000/svg" xmlns:xlink="http://www.w3.org/1999/xlink">
<g id="graph0" class="graph" transform="scale(1 1) rotate(0) translate(4 256)">
<title>%3</title>
<polygon fill="white" stroke="none" points="-4,4 -4,-256 715.428,-256 715.428,4 -4,4"/>
<!-- [root] azurerm_resource_group.rg (expand) -->
<g id="node1" class="node"><title>[root] azurerm_resource_group.rg (expand)</title>
<polygon fill="none" stroke="black" points="464.214,-108 247.214,-108 247.214,-72 464.214,-72 464.214,-108"/>
<text text-anchor="middle" x="355.714" y="-86.3" font-family="Times,serif" font-size="14.00">azurerm_resource_group.rg</text>
</g>
<!-- [root] provider[&quot;registry.terraform.io/hashicorp/azurerm&quot;] -->
<g id="node2" class="node"><title>[root] provider[&quot;registry.terraform.io/hashicorp/azurerm&quot;]</title>
<polygon fill="none" stroke="black" points="355.714,-36 -0.213988,-18 355.714,-3.55271e-15 711.642,-18 355.714,-36"/>
<text text-anchor="middle" x="355.714" y="-14.3" font-family="Times,serif" font-size="14.00">provider[&quot;registry.terraform.io/hashicorp/azurerm&quot;]</text>
</g>
<!-- [root] azurerm_resource_group.rg (expand)&#45;&gt;[root] provider[&quot;registry.terraform.io/hashicorp/azurerm&quot;] -->
<g id="edge1" class="edge"><title>[root] azurerm_resource_group.rg (expand)&#45;&gt;[root] provider[&quot;registry.terraform.io/hashicorp/azurerm&quot;]</title>
<path fill="none" stroke="black" d="M355.714,-71.6966C355.714,-63.9827 355.714,-54.7125 355.714,-46.1124"/>
<polygon fill="black" stroke="black" points="359.214,-46.1043 355.714,-36.1043 352.214,-46.1044 359.214,-46.1043"/>
</g>
<!-- [root] provider[&quot;registry.terraform.io/hashicorp/azurerm&quot;] (close) -->
<g id="node3" class="node"><title>[root] provider[&quot;registry.terraform.io/hashicorp/azurerm&quot;] (close)</title>
<ellipse fill="none" stroke="black" cx="355.714" cy="-162" rx="313.844" ry="18"/>
<text text-anchor="middle" x="355.714" y="-158.3" font-family="Times,serif" font-size="14.00">[root] provider[&quot;registry.terraform.io/hashicorp/azurerm&quot;] (close)</text>
</g>
<!-- [root] provider[&quot;registry.terraform.io/hashicorp/azurerm&quot;] (close)&#45;&gt;[root] azurerm_resource_group.rg (expand) -->
<g id="edge2" class="edge"><title>[root] provider[&quot;registry.terraform.io/hashicorp/azurerm&quot;] (close)&#45;&gt;[root] azurerm_resource_group.rg (expand)</title>
<path fill="none" stroke="black" d="M355.714,-143.697C355.714,-135.983 355.714,-126.712 355.714,-118.112"/>
<polygon fill="black" stroke="black" points="359.214,-118.104 355.714,-108.104 352.214,-118.104 359.214,-118.104"/>
</g>
<!-- [root] root -->
<g id="node4" class="node"><title>[root] root</title>
<ellipse fill="none" stroke="black" cx="355.714" cy="-234" rx="58.4896" ry="18"/>
<text text-anchor="middle" x="355.714" y="-230.3" font-family="Times,serif" font-size="14.00">[root] root</text>
</g>
<!-- [root] root&#45;&gt;[root] provider[&quot;registry.terraform.io/hashicorp/azurerm&quot;] (close) -->
<g id="edge3" class="edge"><title>[root] root&#45;&gt;[root] provider[&quot;registry.terraform.io/hashicorp/azurerm&quot;] (close)</title>
<path fill="none" stroke="black" d="M355.714,-215.697C355.714,-207.983 355.714,-198.712 355.714,-190.112"/>
<polygon fill="black" stroke="black" points="359.214,-190.104 355.714,-180.104 352.214,-190.104 359.214,-190.104"/>
</g>
</g>
</svg>
