<?xml version="1.0" encoding="UTF-8" standalone="no"?>
<!DOCTYPE svg PUBLIC "-//W3C//DTD SVG 1.1//EN"
 "http://www.w3.org/Graphics/SVG/1.1/DTD/svg11.dtd">
<!-- Generated by graphviz version 2.38.0 (20140413.2041)
 -->
<!-- Title: %3 Pages: 1 -->
<svg width="942pt" height="548pt"
 viewBox="0.00 0.00 942.42 548.00" xmlns="http://www.w3.org/2000/svg" xmlns:xlink="http://www.w3.org/1999/xlink">
<g id="graph0" class="graph" transform="scale(1 1) rotate(0) translate(4 544)">
<title>%3</title>
<polygon fill="white" stroke="none" points="-4,4 -4,-544 938.422,-544 938.422,4 -4,4"/>
<!-- [root] azurerm_network_interface.example (expand) -->
<g id="node1" class="node"><title>[root] azurerm_network_interface.example (expand)</title>
<polygon fill="none" stroke="black" points="606.5,-324 326.5,-324 326.5,-288 606.5,-288 606.5,-324"/>
<text text-anchor="middle" x="466.5" y="-302.3" font-family="Times,serif" font-size="14.00">azurerm_network_interface.example</text>
</g>
<!-- [root] azurerm_public_ip.example (expand) -->
<g id="node4" class="node"><title>[root] azurerm_public_ip.example (expand)</title>
<polygon fill="none" stroke="black" points="528.5,-252 314.5,-252 314.5,-216 528.5,-216 528.5,-252"/>
<text text-anchor="middle" x="421.5" y="-230.3" font-family="Times,serif" font-size="14.00">azurerm_public_ip.example</text>
</g>
<!-- [root] azurerm_network_interface.example (expand)&#45;&gt;[root] azurerm_public_ip.example (expand) -->
<g id="edge1" class="edge"><title>[root] azurerm_network_interface.example (expand)&#45;&gt;[root] azurerm_public_ip.example (expand)</title>
<path fill="none" stroke="black" d="M455.376,-287.697C450.145,-279.559 443.8,-269.689 438.022,-260.701"/>
<polygon fill="black" stroke="black" points="440.847,-258.623 432.496,-252.104 434.959,-262.409 440.847,-258.623"/>
</g>
<!-- [root] azurerm_subnet.internal (expand) -->
<g id="node7" class="node"><title>[root] azurerm_subnet.internal (expand)</title>
<polygon fill="none" stroke="black" points="740.5,-252 546.5,-252 546.5,-216 740.5,-216 740.5,-252"/>
<text text-anchor="middle" x="643.5" y="-230.3" font-family="Times,serif" font-size="14.00">azurerm_subnet.internal</text>
</g>
<!-- [root] azurerm_network_interface.example (expand)&#45;&gt;[root] azurerm_subnet.internal (expand) -->
<g id="edge2" class="edge"><title>[root] azurerm_network_interface.example (expand)&#45;&gt;[root] azurerm_subnet.internal (expand)</title>
<path fill="none" stroke="black" d="M509.799,-287.876C534.211,-278.222 564.896,-266.087 590.71,-255.878"/>
<polygon fill="black" stroke="black" points="592.33,-259.001 600.342,-252.068 589.755,-252.491 592.33,-259.001"/>
</g>
<!-- [root] azurerm_network_interface_security_group_association.example (expand) -->
<g id="node2" class="node"><title>[root] azurerm_network_interface_security_group_association.example (expand)</title>
<polygon fill="none" stroke="black" points="483,-396 0,-396 0,-360 483,-360 483,-396"/>
<text text-anchor="middle" x="241.5" y="-374.3" font-family="Times,serif" font-size="14.00">azurerm_network_interface_security_group_association.example</text>
</g>
<!-- [root] azurerm_network_interface_security_group_association.example (expand)&#45;&gt;[root] azurerm_network_interface.example (expand) -->
<g id="edge3" class="edge"><title>[root] azurerm_network_interface_security_group_association.example (expand)&#45;&gt;[root] azurerm_network_interface.example (expand)</title>
<path fill="none" stroke="black" d="M296.253,-359.966C328.101,-350.057 368.42,-337.514 401.825,-327.121"/>
<polygon fill="black" stroke="black" points="402.992,-330.424 411.501,-324.111 400.913,-323.74 402.992,-330.424"/>
</g>
<!-- [root] azurerm_network_security_group.example (expand) -->
<g id="node3" class="node"><title>[root] azurerm_network_security_group.example (expand)</title>
<polygon fill="none" stroke="black" points="403,-180 80,-180 80,-144 403,-144 403,-180"/>
<text text-anchor="middle" x="241.5" y="-158.3" font-family="Times,serif" font-size="14.00">azurerm_network_security_group.example</text>
</g>
<!-- [root] azurerm_network_interface_security_group_association.example (expand)&#45;&gt;[root] azurerm_network_security_group.example (expand) -->
<g id="edge4" class="edge"><title>[root] azurerm_network_interface_security_group_association.example (expand)&#45;&gt;[root] azurerm_network_security_group.example (expand)</title>
<path fill="none" stroke="black" d="M241.5,-359.849C241.5,-322.832 241.5,-235.181 241.5,-190.386"/>
<polygon fill="black" stroke="black" points="245,-190.232 241.5,-180.232 238,-190.232 245,-190.232"/>
</g>
<!-- [root] azurerm_resource_group.rg (expand) -->
<g id="node5" class="node"><title>[root] azurerm_resource_group.rg (expand)</title>
<polygon fill="none" stroke="black" points="540,-108 323,-108 323,-72 540,-72 540,-108"/>
<text text-anchor="middle" x="431.5" y="-86.3" font-family="Times,serif" font-size="14.00">azurerm_resource_group.rg</text>
</g>
<!-- [root] azurerm_network_security_group.example (expand)&#45;&gt;[root] azurerm_resource_group.rg (expand) -->
<g id="edge5" class="edge"><title>[root] azurerm_network_security_group.example (expand)&#45;&gt;[root] azurerm_resource_group.rg (expand)</title>
<path fill="none" stroke="black" d="M287.979,-143.876C314.415,-134.137 347.703,-121.872 375.564,-111.608"/>
<polygon fill="black" stroke="black" points="376.998,-114.81 385.172,-108.068 374.578,-108.241 376.998,-114.81"/>
</g>
<!-- [root] azurerm_public_ip.example (expand)&#45;&gt;[root] azurerm_resource_group.rg (expand) -->
<g id="edge6" class="edge"><title>[root] azurerm_public_ip.example (expand)&#45;&gt;[root] azurerm_resource_group.rg (expand)</title>
<path fill="none" stroke="black" d="M422.706,-215.871C424.411,-191.67 427.541,-147.211 429.571,-118.393"/>
<polygon fill="black" stroke="black" points="433.078,-118.41 430.289,-108.189 426.096,-117.919 433.078,-118.41"/>
</g>
<!-- [root] provider[&quot;registry.terraform.io/hashicorp/azurerm&quot;] -->
<g id="node10" class="node"><title>[root] provider[&quot;registry.terraform.io/hashicorp/azurerm&quot;]</title>
<polygon fill="none" stroke="black" points="431.5,-36 75.5722,-18 431.5,-3.55271e-15 787.428,-18 431.5,-36"/>
<text text-anchor="middle" x="431.5" y="-14.3" font-family="Times,serif" font-size="14.00">provider[&quot;registry.terraform.io/hashicorp/azurerm&quot;]</text>
</g>
<!-- [root] azurerm_resource_group.rg (expand)&#45;&gt;[root] provider[&quot;registry.terraform.io/hashicorp/azurerm&quot;] -->
<g id="edge7" class="edge"><title>[root] azurerm_resource_group.rg (expand)&#45;&gt;[root] provider[&quot;registry.terraform.io/hashicorp/azurerm&quot;]</title>
<path fill="none" stroke="black" d="M431.5,-71.6966C431.5,-63.9827 431.5,-54.7125 431.5,-46.1124"/>
<polygon fill="black" stroke="black" points="435,-46.1043 431.5,-36.1043 428,-46.1044 435,-46.1043"/>
</g>
<!-- [root] azurerm_subnet.external (expand) -->
<g id="node6" class="node"><title>[root] azurerm_subnet.external (expand)</title>
<polygon fill="none" stroke="black" points="867,-324 670,-324 670,-288 867,-288 867,-324"/>
<text text-anchor="middle" x="768.5" y="-302.3" font-family="Times,serif" font-size="14.00">azurerm_subnet.external</text>
</g>
<!-- [root] azurerm_virtual_network.example (expand) -->
<g id="node9" class="node"><title>[root] azurerm_virtual_network.example (expand)</title>
<polygon fill="none" stroke="black" points="775,-180 512,-180 512,-144 775,-144 775,-180"/>
<text text-anchor="middle" x="643.5" y="-158.3" font-family="Times,serif" font-size="14.00">azurerm_virtual_network.example</text>
</g>
<!-- [root] azurerm_subnet.external (expand)&#45;&gt;[root] azurerm_virtual_network.example (expand) -->
<g id="edge8" class="edge"><title>[root] azurerm_subnet.external (expand)&#45;&gt;[root] azurerm_virtual_network.example (expand)</title>
<path fill="none" stroke="black" d="M769.064,-287.774C768.815,-268.382 765.651,-236.865 749.5,-216 739.122,-202.594 724.444,-192.327 709.308,-184.567"/>
<polygon fill="black" stroke="black" points="710.391,-181.206 699.859,-180.054 707.374,-187.522 710.391,-181.206"/>
</g>
<!-- [root] azurerm_subnet.internal (expand)&#45;&gt;[root] azurerm_virtual_network.example (expand) -->
<g id="edge9" class="edge"><title>[root] azurerm_subnet.internal (expand)&#45;&gt;[root] azurerm_virtual_network.example (expand)</title>
<path fill="none" stroke="black" d="M643.5,-215.697C643.5,-207.983 643.5,-198.712 643.5,-190.112"/>
<polygon fill="black" stroke="black" points="647,-190.104 643.5,-180.104 640,-190.104 647,-190.104"/>
</g>
<!-- [root] azurerm_virtual_machine.main (expand) -->
<g id="node8" class="node"><title>[root] azurerm_virtual_machine.main (expand)</title>
<polygon fill="none" stroke="black" points="740,-396 501,-396 501,-360 740,-360 740,-396"/>
<text text-anchor="middle" x="620.5" y="-374.3" font-family="Times,serif" font-size="14.00">azurerm_virtual_machine.main</text>
</g>
<!-- [root] azurerm_virtual_machine.main (expand)&#45;&gt;[root] azurerm_network_interface.example (expand) -->
<g id="edge10" class="edge"><title>[root] azurerm_virtual_machine.main (expand)&#45;&gt;[root] azurerm_network_interface.example (expand)</title>
<path fill="none" stroke="black" d="M582.827,-359.876C561.868,-350.349 535.595,-338.407 513.323,-328.283"/>
<polygon fill="black" stroke="black" points="514.602,-325.02 504.05,-324.068 511.706,-331.393 514.602,-325.02"/>
</g>
<!-- [root] azurerm_virtual_network.example (expand)&#45;&gt;[root] azurerm_resource_group.rg (expand) -->
<g id="edge11" class="edge"><title>[root] azurerm_virtual_network.example (expand)&#45;&gt;[root] azurerm_resource_group.rg (expand)</title>
<path fill="none" stroke="black" d="M591.91,-143.966C562.031,-134.1 524.24,-121.622 492.844,-111.255"/>
<polygon fill="black" stroke="black" points="493.914,-107.923 483.321,-108.111 491.72,-114.57 493.914,-107.923"/>
</g>
<!-- [root] provider[&quot;registry.terraform.io/hashicorp/azurerm&quot;] (close) -->
<g id="node11" class="node"><title>[root] provider[&quot;registry.terraform.io/hashicorp/azurerm&quot;] (close)</title>
<ellipse fill="none" stroke="black" cx="620.5" cy="-450" rx="313.844" ry="18"/>
<text text-anchor="middle" x="620.5" y="-446.3" font-family="Times,serif" font-size="14.00">[root] provider[&quot;registry.terraform.io/hashicorp/azurerm&quot;] (close)</text>
</g>
<!-- [root] provider[&quot;registry.terraform.io/hashicorp/azurerm&quot;] (close)&#45;&gt;[root] azurerm_network_interface_security_group_association.example (expand) -->
<g id="edge12" class="edge"><title>[root] provider[&quot;registry.terraform.io/hashicorp/azurerm&quot;] (close)&#45;&gt;[root] azurerm_network_interface_security_group_association.example (expand)</title>
<path fill="none" stroke="black" d="M532.12,-432.676C475.774,-422.27 402.561,-408.748 343.716,-397.879"/>
<polygon fill="black" stroke="black" points="344.123,-394.395 333.654,-396.021 342.852,-401.279 344.123,-394.395"/>
</g>
<!-- [root] provider[&quot;registry.terraform.io/hashicorp/azurerm&quot;] (close)&#45;&gt;[root] azurerm_subnet.external (expand) -->
<g id="edge13" class="edge"><title>[root] provider[&quot;registry.terraform.io/hashicorp/azurerm&quot;] (close)&#45;&gt;[root] azurerm_subnet.external (expand)</title>
<path fill="none" stroke="black" d="M693.245,-432.459C713.712,-424.536 734.251,-412.929 748.5,-396 762.889,-378.905 767.492,-353.618 768.726,-334.363"/>
<polygon fill="black" stroke="black" points="772.233,-334.227 769.108,-324.104 765.238,-333.966 772.233,-334.227"/>
</g>
<!-- [root] provider[&quot;registry.terraform.io/hashicorp/azurerm&quot;] (close)&#45;&gt;[root] azurerm_virtual_machine.main (expand) -->
<g id="edge14" class="edge"><title>[root] provider[&quot;registry.terraform.io/hashicorp/azurerm&quot;] (close)&#45;&gt;[root] azurerm_virtual_machine.main (expand)</title>
<path fill="none" stroke="black" d="M620.5,-431.697C620.5,-423.983 620.5,-414.712 620.5,-406.112"/>
<polygon fill="black" stroke="black" points="624,-406.104 620.5,-396.104 617,-406.104 624,-406.104"/>
</g>
<!-- [root] root -->
<g id="node12" class="node"><title>[root] root</title>
<ellipse fill="none" stroke="black" cx="620.5" cy="-522" rx="58.4896" ry="18"/>
<text text-anchor="middle" x="620.5" y="-518.3" font-family="Times,serif" font-size="14.00">[root] root</text>
</g>
<!-- [root] root&#45;&gt;[root] provider[&quot;registry.terraform.io/hashicorp/azurerm&quot;] (close) -->
<g id="edge15" class="edge"><title>[root] root&#45;&gt;[root] provider[&quot;registry.terraform.io/hashicorp/azurerm&quot;] (close)</title>
<path fill="none" stroke="black" d="M620.5,-503.697C620.5,-495.983 620.5,-486.712 620.5,-478.112"/>
<polygon fill="black" stroke="black" points="624,-478.104 620.5,-468.104 617,-478.104 624,-478.104"/>
</g>
</g>
</svg>
